<svg xmlns="http://www.w3.org/2000/svg" width="200" height="200">
  <rect x="8"   y="6"   width="6"  height="6"  fill="white" fill-opacity="0.05"/>
  <rect x="28"  y="3"   width="4"  height="4"  fill="white" fill-opacity="0.04"/>
  <rect x="54"  y="9"   width="8"  height="8"  fill="white" fill-opacity="0.03"/>
  <rect x="80"  y="5"   width="5"  height="5"  fill="white" fill-opacity="0.06"/>
  <rect x="105" y="8"   width="10" height="10" fill="white" fill-opacity="0.03"/>
  <rect x="138" y="4"   width="4"  height="4"  fill="white" fill-opacity="0.05"/>
  <rect x="162" y="7"   width="7"  height="7"  fill="white" fill-opacity="0.04"/>
  <rect x="186" y="3"   width="5"  height="5"  fill="white" fill-opacity="0.06"/>

  <rect x="3"   y="32"  width="5"  height="5"  fill="white" fill-opacity="0.04"/>
  <rect x="22"  y="28"  width="8"  height="8"  fill="white" fill-opacity="0.03"/>
  <rect x="50"  y="34"  width="6"  height="6"  fill="white" fill-opacity="0.06"/>
  <rect x="74"  y="26"  width="4"  height="4"  fill="white" fill-opacity="0.05"/>
  <rect x="96"  y="32"  width="7"  height="7"  fill="white" fill-opacity="0.04"/>
  <rect x="125" y="29"  width="5"  height="5"  fill="white" fill-opacity="0.07"/>
  <rect x="150" y="35"  width="9"  height="9"  fill="white" fill-opacity="0.03"/>
  <rect x="178" y="27"  width="6"  height="6"  fill="white" fill-opacity="0.05"/>

  <rect x="10"  y="56"  width="10" height="10" fill="white" fill-opacity="0.03"/>
  <rect x="36"  y="58"  width="5"  height="5"  fill="white" fill-opacity="0.06"/>
  <rect x="60"  y="52"  width="7"  height="7"  fill="white" fill-opacity="0.04"/>
  <rect x="88"  y="57"  width="4"  height="4"  fill="white" fill-opacity="0.07"/>
  <rect x="112" y="54"  width="8"  height="8"  fill="white" fill-opacity="0.04"/>
  <rect x="140" y="59"  width="6"  height="6"  fill="white" fill-opacity="0.05"/>
  <rect x="168" y="53"  width="5"  height="5"  fill="white" fill-opacity="0.03"/>
  <rect x="190" y="56"  width="7"  height="7"  fill="white" fill-opacity="0.06"/>

  <rect x="5"   y="82"  width="7"  height="7"  fill="white" fill-opacity="0.05"/>
  <rect x="30"  y="78"  width="4"  height="4"  fill="white" fill-opacity="0.04"/>
  <rect x="55"  y="84"  width="9"  height="9"  fill="white" fill-opacity="0.03"/>
  <rect x="78"  y="80"  width="6"  height="6"  fill="white" fill-opacity="0.06"/>
  <rect x="103" y="76"  width="5"  height="5"  fill="white" fill-opacity="0.05"/>
  <rect x="130" y="82"  width="8"  height="8"  fill="white" fill-opacity="0.04"/>
  <rect x="157" y="79"  width="4"  height="4"  fill="white" fill-opacity="0.07"/>
  <rect x="182" y="83"  width="6"  height="6"  fill="white" fill-opacity="0.04"/>

  <rect x="14"  y="108" width="5"  height="5"  fill="white" fill-opacity="0.06"/>
  <rect x="40"  y="104" width="8"  height="8"  fill="white" fill-opacity="0.03"/>
  <rect x="65"  y="110" width="6"  height="6"  fill="white" fill-opacity="0.05"/>
  <rect x="90"  y="106" width="4"  height="4"  fill="white" fill-opacity="0.04"/>
  <rect x="116" y="109" width="7"  height="7"  fill="white" fill-opacity="0.06"/>
  <rect x="144" y="104" width="5"  height="5"  fill="white" fill-opacity="0.03"/>
  <rect x="170" y="108" width="9"  height="9"  fill="white" fill-opacity="0.05"/>
  <rect x="193" y="105" width="4"  height="4"  fill="white" fill-opacity="0.04"/>

  <rect x="6"   y="132" width="9"  height="9"  fill="white" fill-opacity="0.04"/>
  <rect x="32"  y="130" width="5"  height="5"  fill="white" fill-opacity="0.06"/>
  <rect x="58"  y="135" width="4"  height="4"  fill="white" fill-opacity="0.05"/>
  <rect x="82"  y="128" width="7"  height="7"  fill="white" fill-opacity="0.03"/>
  <rect x="108" y="133" width="6"  height="6"  fill="white" fill-opacity="0.07"/>
  <rect x="135" y="130" width="8"  height="8"  fill="white" fill-opacity="0.04"/>
  <rect x="160" y="134" width="5"  height="5"  fill="white" fill-opacity="0.05"/>
  <rect x="185" y="129" width="6"  height="6"  fill="white" fill-opacity="0.03"/>

  <rect x="12"  y="158" width="6"  height="6"  fill="white" fill-opacity="0.05"/>
  <rect x="38"  y="155" width="4"  height="4"  fill="white" fill-opacity="0.07"/>
  <rect x="62"  y="160" width="8"  height="8"  fill="white" fill-opacity="0.03"/>
  <rect x="86"  y="156" width="5"  height="5"  fill="white" fill-opacity="0.05"/>
  <rect x="114" y="159" width="9"  height="9"  fill="white" fill-opacity="0.04"/>
  <rect x="142" y="154" width="4"  height="4"  fill="white" fill-opacity="0.06"/>
  <rect x="166" y="158" width="7"  height="7"  fill="white" fill-opacity="0.04"/>
  <rect x="190" y="155" width="5"  height="5"  fill="white" fill-opacity="0.05"/>

  <rect x="4"   y="182" width="8"  height="8"  fill="white" fill-opacity="0.04"/>
  <rect x="26"  y="185" width="5"  height="5"  fill="white" fill-opacity="0.06"/>
  <rect x="52"  y="180" width="6"  height="6"  fill="white" fill-opacity="0.03"/>
  <rect x="76"  y="184" width="4"  height="4"  fill="white" fill-opacity="0.05"/>
  <rect x="100" y="182" width="7"  height="7"  fill="white" fill-opacity="0.07"/>
  <rect x="128" y="186" width="9"  height="9"  fill="white" fill-opacity="0.03"/>
  <rect x="155" y="181" width="5"  height="5"  fill="white" fill-opacity="0.05"/>
  <rect x="180" y="184" width="8"  height="8"  fill="white" fill-opacity="0.04"/>
</svg>
